<svg width="20" height="20" viewBox="0 0 20 20" fill="none" xmlns="http://www.w3.org/2000/svg">
<g opacity="0.8">
<path fill-rule="evenodd" clip-rule="evenodd" d="M10.0473 1.4585C11.8729 1.45849 13.3068 1.45848 14.4263 1.60899C15.5735 1.76323 16.4838 2.08575 17.1989 2.80092C17.9141 3.51609 18.2366 4.4263 18.3908 5.57351C18.5413 6.69303 18.5413 8.12691 18.5413 9.9525V10.0478C18.5413 11.8734 18.5413 13.3073 18.3908 14.4268C18.2366 15.574 17.9141 16.4842 17.1989 17.1994C16.4838 17.9146 15.5735 18.2371 14.4263 18.3913C13.3068 18.5418 11.8729 18.5418 10.0473 18.5418H9.95201C8.12642 18.5418 6.69254 18.5418 5.57302 18.3913C4.42582 18.2371 3.5156 17.9146 2.80043 17.1994C2.08527 16.4842 1.76274 15.574 1.6085 14.4268C1.45799 13.3073 1.458 11.8734 1.45801 10.0478V9.9525C1.458 8.12693 1.45799 6.69303 1.6085 5.57351C1.76274 4.4263 2.08527 3.51609 2.80043 2.80092C3.5156 2.08575 4.42582 1.76323 5.57302 1.60899C6.69253 1.45848 8.12642 1.45849 9.95201 1.4585H10.0473ZM13.7497 10.0002C13.7497 12.0712 12.0708 13.7502 9.99967 13.7502C7.92861 13.7502 6.24967 12.0712 6.24967 10.0002C6.24967 7.9291 7.92861 6.25016 9.99967 6.25016C12.0708 6.25016 13.7497 7.9291 13.7497 10.0002ZM14.5941 6.25016C15.0523 6.25016 15.4237 5.87707 15.4237 5.41683C15.4237 4.9566 15.0523 4.5835 14.5941 4.5835H14.5866C14.1284 4.5835 13.757 4.9566 13.757 5.41683C13.757 5.87706 14.1284 6.25016 14.5866 6.25016H14.5941Z" fill="white"/>
</g>
</svg>
